<svg width="49" height="48" viewBox="0 0 49 48" fill="none" xmlns="http://www.w3.org/2000/svg">
<g clip-path="url(#clip0_415_460)">
<path d="M48.4174 48V40.3957H42.6253L39.6437 37.0975L36.6459 40.3957H17.5544V25.0321H11.3909L19.034 7.7335H26.4056L29.0384 13.6612V7.7335H38.1642L39.7471 12.1979L41.3429 7.7335H48.4174V0H0.417358V48H48.4174ZM43.6009 38.4704H48.4174L42.0471 31.7157L48.4174 25.0386H43.6784L39.7438 29.3382L35.848 25.0386H31.0315L37.363 31.7545L31.0315 38.4704H35.7156L39.6695 34.132L43.6041 38.4704H43.6009ZM44.7283 31.7222L48.4174 35.6471V27.8296L44.7283 31.7222ZM23.2593 35.3628V33.2695H30.8377V30.2362H23.2593V28.1462H31.0315V25.0386H19.5928V38.4704H31.0315V35.3628H23.2593ZM44.7897 23.0874H48.4174V9.65556H42.7739L39.76 18.0222L36.7654 9.65556H31.0283V23.0874H34.656V13.6838L38.1093 23.0874H41.3332L44.7864 13.6644V23.0874H44.7897ZM26.9031 23.0874H31.0283L25.0974 9.65556H20.3778L14.4468 23.0874H18.4783L19.5928 20.3998H25.7725L26.9031 23.0874ZM24.503 17.3891H20.8559L22.6778 12.9958L24.4997 17.3891H24.503Z" fill="#EFECE6"/>
</g>
<defs>
<clipPath id="clip0_415_460">
<rect width="48" height="48" fill="white" transform="translate(0.417358)"/>
</clipPath>
</defs>
</svg>
