<svg width="40" height="48" viewBox="0 0 40 48" fill="none" xmlns="http://www.w3.org/2000/svg">
<g clip-path="url(#clip0_89_172)">
<path d="M38.4797 16.3632C38.2013 16.5792 33.2861 19.3488 33.2861 25.5072C33.2861 32.6304 39.5405 35.1504 39.7277 35.2128C39.6989 35.3664 38.7341 38.664 36.4301 42.024C34.3757 44.9808 32.2301 47.9328 28.9661 47.9328C25.7021 47.9328 24.8621 46.0368 21.0941 46.0368C17.4221 46.0368 16.1165 47.9952 13.1309 47.9952C10.1453 47.9952 8.06208 45.2592 5.66688 41.8992C2.89248 37.9536 0.650879 31.824 0.650879 26.0064C0.650879 16.6752 6.71808 11.7264 12.6893 11.7264C15.8621 11.7264 18.5069 13.8096 20.4989 13.8096C22.3949 13.8096 25.3517 11.6016 28.9613 11.6016C30.3293 11.6016 35.2445 11.7264 38.4797 16.3632V16.3632ZM27.2477 7.6512C28.7405 5.88 29.7965 3.4224 29.7965 0.9648C29.7965 0.624 29.7677 0.2784 29.7053 0C27.2765 0.0912 24.3869 1.6176 22.6445 3.6384C21.2765 5.1936 19.9997 7.6512 19.9997 10.1424C19.9997 10.5168 20.0621 10.8912 20.0909 11.0112C20.2445 11.04 20.4941 11.0736 20.7437 11.0736C22.9229 11.0736 25.6637 9.6144 27.2477 7.6512Z" fill="#EFECE6"/>
</g>
<defs>
<clipPath id="clip0_89_172">
<rect width="39.072" height="48" fill="white" transform="translate(0.650879)"/>
</clipPath>
</defs>
</svg>
