<svg width="158" height="28" viewBox="0 0 158 28" fill="none" xmlns="http://www.w3.org/2000/svg">
<g clip-path="url(#clip0_415_447)">
<path d="M32.1461 7.81775C26.4512 7.81775 22.0014 12.14 22.0014 17.9267C22.0014 23.7135 26.3389 28 32.1461 28C37.9533 28 42.3622 23.6421 42.3622 17.891C42.3622 12.14 38.0247 7.81775 32.1461 7.81775ZM32.1818 23.8258C28.9414 23.8258 26.5634 21.31 26.5634 17.9267C26.5634 14.5435 28.9006 11.9869 32.1461 11.9869C35.3916 11.9869 37.8002 14.5435 37.8002 17.9267C37.8002 21.31 35.4273 23.8258 32.1818 23.8258ZM43.6074 12.2114H46.4344V27.6224H50.9607V8.19537H43.6074V12.2165V12.2114ZM10.6166 11.9869C12.9946 11.9869 14.8776 13.4514 15.592 15.6304H20.3786C19.5111 10.9714 15.6635 7.81265 10.6524 7.81265C4.96255 7.81775 0.512756 12.14 0.512756 17.9267C0.512756 23.7135 4.85028 28 10.6575 28C15.5614 28 19.4805 24.8413 20.348 20.1465H15.5971C14.9184 22.3255 13.0355 23.8309 10.6575 23.8309C7.37625 23.8309 5.07481 21.3151 5.07481 17.9318C5.07481 14.5486 7.33543 11.992 10.6166 11.992V11.9869ZM129.577 16.0437L126.26 15.5539C124.678 15.3293 123.545 14.8037 123.545 13.5637C123.545 12.2114 125.015 11.5327 127.015 11.5327C129.205 11.5327 130.598 12.4717 130.899 14.0128H135.272C134.782 10.1039 131.766 7.81265 127.128 7.81265C122.489 7.81265 119.172 10.257 119.172 13.7117C119.172 17.1664 121.244 18.9371 125.434 19.5393L128.75 20.0292C130.373 20.2537 131.276 20.8916 131.276 22.0959C131.276 23.637 129.695 24.2748 127.505 24.2748C124.826 24.2748 123.321 23.1828 123.091 21.5294H118.641C119.055 25.326 122.035 27.9949 127.465 27.9949C132.404 27.9949 135.685 25.7394 135.685 21.8713C135.685 18.4115 133.313 16.6102 129.577 16.0437ZM48.7001 0.18881C47.0417 0.18881 45.7965 1.39311 45.7965 3.04647C45.7965 4.69984 47.0417 5.90414 48.7001 5.90414C50.3586 5.90414 51.6037 4.69984 51.6037 3.04647C51.6037 1.39311 50.3586 0.18881 48.7001 0.18881ZM115.1 14.8445C115.1 10.6346 112.538 7.81775 107.109 7.81775C101.98 7.81775 99.1175 10.4101 98.5511 14.3955H103.037C103.261 12.8544 104.471 11.5786 107.032 11.5786C109.334 11.5786 110.461 12.5941 110.461 13.8342C110.461 15.4518 108.39 15.8651 105.823 16.1254C102.353 16.503 98.0561 17.7022 98.0561 22.2132C98.0561 25.7088 100.659 27.9643 104.807 27.9643C108.048 27.9643 110.084 26.612 111.104 24.4687C111.257 26.3875 112.686 27.6275 114.687 27.6275H117.325V23.6063H115.1V14.8496V14.8445ZM110.65 19.7281C110.65 22.3204 108.39 24.2391 105.634 24.2391C103.94 24.2391 102.506 23.5247 102.506 22.0193C102.506 20.1006 104.807 19.575 106.915 19.3505C108.951 19.1617 110.084 18.7126 110.645 17.8451V19.723L110.65 19.7281ZM86.6305 7.81265C84.1046 7.81265 81.9919 8.86386 80.4865 10.6295V0H75.9602V27.6224H80.41V25.0658C81.9205 26.908 84.0688 27.9949 86.6305 27.9949C92.0601 27.9949 96.168 23.7084 96.168 17.9216C96.168 12.1349 91.9835 7.81265 86.6305 7.81265ZM85.9518 23.8207C82.7114 23.8207 80.3335 21.3049 80.3335 17.9216C80.3335 14.5384 82.7472 11.9818 85.9876 11.9818C89.2279 11.9818 91.5702 14.4975 91.5702 17.9216C91.5702 21.3457 89.1922 23.8207 85.9518 23.8207ZM65.1368 7.81265C62.1975 7.81265 60.2737 9.01695 59.1408 10.706V8.19027H54.6553V27.6224H59.1816V17.0592C59.1816 14.0893 61.0646 11.9869 63.856 11.9869C66.4585 11.9869 68.0812 13.8291 68.0812 16.4979V27.6224H72.6076V16.1611C72.6076 11.2776 70.0816 7.81775 65.1419 7.81775L65.1368 7.81265ZM157.251 17.2838C157.251 11.7215 153.178 7.81265 147.713 7.81265C141.906 7.81265 137.645 12.1706 137.645 17.9216C137.645 23.9738 142.207 27.9949 147.79 27.9949C152.505 27.9949 156.199 25.2138 157.138 21.2692H152.423C151.744 22.9991 150.086 23.9738 147.861 23.9738C144.958 23.9738 142.773 22.1673 142.278 19.0137H157.245V17.2838H157.251ZM142.544 15.7784C143.258 13.0738 145.294 11.7572 147.631 11.7572C150.193 11.7572 152.158 13.2218 152.607 15.7784H142.539H142.544Z" fill="#EFECE6"/>
</g>
<defs>
<clipPath id="clip0_415_447">
<rect width="156.743" height="28" fill="white" transform="translate(0.512756)"/>
</clipPath>
</defs>
</svg>
