<svg width="120" height="32" viewBox="0 0 120 32" fill="none" xmlns="http://www.w3.org/2000/svg">
<g clip-path="url(#clip0_415_449)">
<path d="M92.2457 29.0363C93.9205 29.1636 95.5913 29.3028 97.2621 29.45V0H92.2457V29.0363ZM11.5535 18.1124L5.02146 0H0.255676V32C1.92251 31.7613 3.5973 31.5346 5.27208 31.3158V13.9155L11.0801 30.6037C12.9061 30.3928 14.736 30.19 16.5699 30.003V0H11.5535V18.1084V18.1124ZM21.3914 29.5375C26.014 29.1159 30.6604 28.7698 35.3228 28.5032V23.5624C32.3432 23.7335 29.3715 23.9403 26.4078 24.1711V16.6882C28.3531 16.6683 30.9111 16.6087 33.1826 16.6365V11.6957C31.3685 11.6917 28.4566 11.7195 26.4078 11.7474V4.98856H35.3228V0H21.3914V29.5336V29.5375ZM38.5411 4.98856H43.7922V28.1014C45.463 28.0378 47.1338 27.9861 48.8086 27.9423V4.98856H54.0597V0H38.5451V4.98458L38.5411 4.98856ZM57.2701 27.8071H62.2865V16.3938H69.0851V11.453H62.2865V4.98856H71.2731V0H57.2701V27.8031V27.8071ZM119.369 0H113.859L110.227 8.4177L106.961 0H101.535L107.367 15.0413L101.002 29.7961C102.764 29.9672 104.518 30.1502 106.273 30.3451L109.976 21.7643L113.644 31.2243C115.554 31.4709 117.459 31.7255 119.361 31.996H119.369L112.836 15.1407L119.369 0ZM79.5078 0H74.4914V28.0497C79.0503 28.2049 83.5893 28.4356 88.1085 28.7379V23.7971C85.2482 23.6062 82.38 23.4431 79.5038 23.3118V0H79.5078Z" fill="#EFECE6"/>
</g>
<defs>
<clipPath id="clip0_415_449">
<rect width="119.113" height="32" fill="white" transform="translate(0.255676)"/>
</clipPath>
</defs>
</svg>
