<svg width="47" height="64" viewBox="0 0 47 64" fill="none" xmlns="http://www.w3.org/2000/svg">
<g clip-path="url(#clip0_415_451)">
<path fill-rule="evenodd" clip-rule="evenodd" d="M34.645 9.46022C38.376 10.3673 42.3195 9.57006 45.4056 7.28118H46.9433V46.9503C46.915 48.7715 46.2524 50.5218 45.0725 51.9072C43.0636 54.3484 39.655 55.9322 34.9426 56.6125C31.1904 57.1582 28.4126 58.338 26.4568 60.2195C25.3867 61.3745 24.4478 62.643 23.6577 64.0035C22.8747 62.6359 21.9357 61.3674 20.8586 60.2195C18.8992 58.3345 16.1249 57.1546 12.3727 56.6125C7.66034 55.9322 4.25183 54.3484 2.24286 51.9072C1.05945 50.5218 0.396876 48.7715 0.36853 46.9503V7.28118H1.9098C4.99589 9.56652 8.93588 10.3673 12.6704 9.46022C17.6556 8.2839 21.755 4.75491 23.6577 0C25.5639 4.75137 29.6633 8.2839 34.645 9.46022ZM45.5473 8.82842C45.5485 8.82761 45.5496 8.82681 45.5508 8.826H45.5473V8.82842ZM45.5473 8.82842C42.2598 11.0764 38.1655 11.8019 34.3049 10.8173C26.6375 8.90041 23.6577 3.15695 23.6577 3.15695C23.6577 3.15695 20.6779 8.90041 13.0105 10.8173C9.15199 11.8022 5.05611 11.0759 1.76806 8.826V46.9468C1.76806 48.2436 2.31016 53.7461 12.5747 55.2271C16.6281 55.8153 19.6539 57.1156 21.8294 59.2097C22.5239 59.8758 23.1404 60.6198 23.6612 61.4277C24.1856 60.6198 24.7986 59.8758 25.493 59.2097C27.6685 57.1156 30.6979 55.8153 34.7477 55.2271C45.0087 53.7461 45.5508 48.2436 45.5544 46.9468L45.5473 8.82842Z" fill="#EFECE6"/>
<path fill-rule="evenodd" clip-rule="evenodd" d="M34.3758 52.6832C26.6375 53.8772 23.6577 57.5479 23.6577 57.5479C23.6577 57.5479 20.6779 53.8772 12.9397 52.6832C4.25568 51.34 4.32998 47.3176 4.33664 46.9574C4.33678 46.9499 4.33689 46.944 4.33689 46.9397V26.974H42.9785V46.9397C42.9785 46.9415 42.9786 46.9437 42.9786 46.9461C42.9786 46.9494 42.9787 46.9533 42.9788 46.9577C42.9855 47.3218 43.0591 51.3435 34.3758 52.6832ZM14.651 32.0726V41.5683L10.5374 28.944H6.13325V31.4065L7.49737 32.0833V45.7492L6.16514 46.2701V48.4137L11.9865 49.8912V47.3791L10.6543 46.3551V38.1987L14.8494 50.5714L17.7477 51.4395V32.0726L18.8815 31.4065V28.944H13.457V31.4065L14.651 32.0726ZM24.6391 50.249L25.8013 51.6415V54.104L20.0366 51.9497V49.8593L21.3086 49.3384V32.0726L20.0401 31.4349V28.944H30.0531V33.954H27.8528L27.1867 31.8955H24.6391V37.6885H26.5525L27.3071 36.5866H28.8413V41.7454H27.3071L26.5808 40.7038H24.6391V50.249ZM31.0062 48.6617V51.1242L41.1857 48.403V42.0714H38.8118L38.337 45.8626L35.8568 46.5322V32.0726L36.9906 31.4349V28.944H31.2152V31.4349L32.4376 32.0726V47.4854L31.0062 48.6617Z" fill="#EFECE6"/>
<path d="M5.34312 22.8923L3.59634 21.5778H5.72932L6.43441 19.5547L7.1395 21.5778H9.27602L7.52925 22.8923L8.17056 24.9474L6.43441 23.725L4.69827 24.9474L5.33958 22.8923H5.34312Z" fill="#EFECE6"/>
<path d="M12.9255 22.8923L11.1787 21.5778H13.3152L14.0203 19.5547L14.7254 21.5778H16.8619L15.1151 22.8923L15.7565 24.9474L14.0168 23.725L12.2806 24.9474L12.9219 22.8923H12.9255Z" fill="#EFECE6"/>
<path d="M5.34312 16.0505L3.59634 14.736H5.72932L6.43441 12.7128L7.1395 14.736H9.27602L7.52925 16.0505L8.17056 18.1055L6.43441 16.8867L4.69827 18.1055L5.33958 16.0505H5.34312Z" fill="#EFECE6"/>
<path d="M12.9255 16.0505L11.1787 14.736H13.3152L14.0203 12.7128L14.7254 14.736H16.8619L15.1151 16.0505L15.7565 18.1055L14.0203 16.8867L12.2842 18.1055L12.9255 16.0505Z" fill="#EFECE6"/>
<path d="M42.6171 24.9474L40.881 23.725L39.1448 24.9438L39.7861 22.8888L38.0394 21.5743H40.1759L40.881 19.5511L41.5861 21.5743H43.7226L41.9758 22.8888L42.6207 24.9438L42.6171 24.9474Z" fill="#EFECE6"/>
<path d="M35.0348 24.9474L33.2986 23.725L31.5625 24.9474L32.2038 22.8923L30.457 21.5778H32.5935L33.2986 19.5547L34.0037 21.5778H36.1402L34.3934 22.8923L35.0348 24.9474Z" fill="#EFECE6"/>
<path d="M42.6171 18.102L40.881 16.8831L39.1448 18.102L39.7861 16.0469L38.0394 14.7324H40.1759L40.881 12.7093L41.5861 14.7324H43.7226L41.9758 16.0469L42.6207 18.102H42.6171Z" fill="#EFECE6"/>
<path d="M35.0348 18.102L33.2986 16.8831L31.5625 18.102L32.2038 16.0469L30.457 14.7324H32.5935L33.2986 12.7093L34.0037 14.7324H36.1402L34.3934 16.0469L35.0348 18.102Z" fill="#EFECE6"/>
<path d="M28.4728 10.5621C27.6756 11.0334 26.9457 11.6109 26.3044 12.277C26.5808 12.4365 26.8465 12.6172 27.0946 12.8191C26.9032 12.9892 26.7083 13.1699 26.5276 13.3435C25.8474 12.7802 25.0466 12.3762 24.1856 12.1601C24.4053 12.0007 24.6391 11.8483 24.8694 11.696C25.1068 11.7597 25.3407 11.8377 25.571 11.9263C26.3859 11.2956 27.2823 10.7712 28.2319 10.3708C28.0618 10.3141 27.8847 10.2893 27.7075 10.307C22.0987 10.3814 16.9292 14.5659 17.9071 21.7337C18.017 22.6833 18.2792 23.6116 18.6831 24.4832C18.9595 22.1766 19.6008 19.9267 20.5893 17.8221C20.313 17.7229 20.0295 17.6449 19.7425 17.5882C19.8771 17.3048 20.0685 16.9398 20.0685 16.9398C21.0216 17.117 21.9145 17.528 22.6727 18.1339C22.492 18.4244 22.3715 18.6157 22.2829 18.7681C22.0243 18.5626 21.7479 18.3783 21.4574 18.2189C20.3236 20.2102 19.4909 22.3573 18.9878 24.593C19.002 24.671 19.165 24.7135 19.2961 24.6958C25.4434 23.8986 28.3205 20.7664 29.1956 17.3685C29.7519 15.2285 29.6173 12.9679 28.813 10.9094C28.7598 10.7747 28.6535 10.5551 28.4764 10.5692M23.1935 17.3367C22.4318 16.7024 21.5212 16.2737 20.5468 16.0895C20.5468 16.0895 20.8267 15.6324 20.9897 15.395C21.9711 15.5899 22.8853 16.0328 23.6506 16.6776C23.4876 16.9115 23.3317 17.1347 23.1935 17.3402M24.2033 15.9229C23.438 15.2745 22.5203 14.8316 21.5389 14.6332C21.6948 14.4313 21.879 14.2151 22.0526 14.0203C23.027 14.2151 23.9411 14.6509 24.7065 15.2887C24.5293 15.5013 24.3628 15.7174 24.2069 15.9265M25.3301 14.573C24.586 13.9529 23.7002 13.5242 22.7542 13.3187C22.9774 13.1061 23.2077 12.9254 23.4097 12.7554C24.3167 12.9679 25.1635 13.3931 25.8792 13.9919C25.6879 14.1868 25.5072 14.3746 25.3336 14.5695" fill="#EFECE6"/>
</g>
<defs>
<clipPath id="clip0_415_451">
<rect width="46.5748" height="64" fill="white" transform="translate(0.36853)"/>
</clipPath>
</defs>
</svg>
