<svg width="93" height="48" viewBox="0 0 93 48" fill="none" xmlns="http://www.w3.org/2000/svg">
<g clip-path="url(#clip0_89_174)">
<path d="M12.2732 16.5693C12.2732 16.5693 9.90055 21.0567 9.90055 24.9404C9.90055 24.9404 9.68479 34.0881 19.1323 34.0881H20.4263C20.4263 34.0881 22.3242 34.6917 55.0207 24.9404H46.7395L46.3077 14.6705L42.4256 24.9404H36.4731L45.8768 0H51.5707L48.9823 7.16298L55.1071 0H73.0525L71.499 4.14248H65.3736L63.4762 9.40636H69.1695L67.3582 14.0663H61.7507L59.508 20.1932H66.2378L65.7198 22.0052C65.7198 22.0052 90.1345 15.7058 92.7227 15.0154C92.7227 15.0154 23.1399 48 11.7517 48C11.7517 48 0.756366 48.0674 0.756366 39.092C0.756068 39.0926 -0.494943 30.7224 12.2732 16.5693ZM52.519 23.2145L60.8588 0.661748L52.0013 10.097L52.519 23.2145ZM38.8887 0L29.6283 24.9404H35.3797L44.6976 0H38.8887ZM13.1222 24.9404H18.8734L23.0144 14.0666L22.554 24.9404H28.6505L37.9684 0H32.2748L28.0182 11.0175L28.7086 0H22.5543L13.1222 24.9404Z" fill="#EFECE6"/>
</g>
<defs>
<clipPath id="clip0_89_174">
<rect width="92" height="48" fill="white" transform="translate(0.722656)"/>
</clipPath>
</defs>
</svg>
