<svg width="144" height="40" viewBox="0 0 144 40" fill="none" xmlns="http://www.w3.org/2000/svg">
<g clip-path="url(#clip0_415_441)">
<path d="M24.5295 0.0798294L0.582764 11.1697L6.54963 33.8772L11.0905 33.3196L9.84182 19.0418L11.3328 18.3776L13.9077 32.9729L21.6686 32.0201L20.2888 16.2608L21.7656 15.604L24.5973 31.6612L32.4478 30.6962L30.9374 13.4219L32.4307 12.7577L35.5267 30.3182L43.2876 29.3651V4.77863L24.5295 0.0798294ZM25.092 34.5198L25.4871 36.7549L43.2879 39.7226V32.2844L25.1017 34.5195L25.092 34.5198ZM60.1235 29.8597V32.9219H63.898C63.8985 33.5429 63.7382 34.1535 63.4327 34.6942C63.1134 35.2329 62.6407 35.6643 62.0752 35.9332C61.3988 36.2422 60.6603 36.3914 59.9171 36.3694C59.0589 36.3933 58.2137 36.1567 57.4927 35.6909C56.7884 35.202 56.245 34.5151 55.9312 33.7172C55.5401 32.7196 55.353 31.6536 55.381 30.5824C55.3524 29.5195 55.5439 28.4621 55.9435 27.4767C56.2702 26.6913 56.8176 26.0175 57.5195 25.537C58.227 25.0776 59.0569 24.8427 59.9002 24.863C60.3393 24.8592 60.7767 24.9172 61.1997 25.0352C61.576 25.1429 61.9311 25.3143 62.2496 25.5418C62.552 25.7597 62.813 26.0298 63.0205 26.3395C63.2375 26.6707 63.4011 27.034 63.5054 27.416H67.6925C67.583 26.5373 67.2977 25.6896 66.8538 24.9235C66.4119 24.1677 65.8321 23.5016 65.1444 22.9598C64.4238 22.3964 63.6108 21.9624 62.7417 21.6772C61.7978 21.3699 60.8104 21.2176 59.8178 21.2262C58.6565 21.2165 57.5041 21.4305 56.4236 21.8565C55.3854 22.2699 54.4467 22.8988 53.6694 23.7016C52.856 24.5499 52.2277 25.558 51.8243 26.6619C51.3636 27.9393 51.1393 29.29 51.1623 30.6477C51.1623 32.5778 51.5292 34.2417 52.263 35.6396C52.9569 36.9863 54.0253 38.1037 55.3397 38.8571C56.6715 39.5676 58.1512 39.9561 59.6602 39.9915C61.1693 40.0268 62.6656 39.708 64.0291 39.0606C65.209 38.4621 66.1913 37.5363 66.8586 36.3939C67.5455 35.2317 67.8882 33.8416 67.8867 32.2237V29.8575L60.1235 29.8597ZM112.257 39.7543V21.4639H124.784V24.8482H116.391V28.9115H123.177V32.2961H116.391V36.3694H124.804V39.754L112.257 39.7543ZM136.946 26.8315C136.927 26.5172 136.841 26.2105 136.693 25.9326C136.545 25.6547 136.338 25.4122 136.087 25.2217C135.581 24.8362 134.875 24.6446 133.981 24.6446C133.464 24.6273 132.949 24.7096 132.463 24.887C132.096 25.0206 131.775 25.2542 131.534 25.5612C131.326 25.8417 131.213 26.1816 131.212 26.5311C131.2 26.8095 131.267 27.0857 131.403 27.3287C131.547 27.5702 131.747 27.7739 131.985 27.9226C132.265 28.104 132.566 28.2499 132.882 28.3568C133.25 28.4851 133.626 28.5911 134.007 28.6743L135.614 29.0478C136.402 29.2153 137.17 29.4656 137.906 29.7945C138.543 30.0788 139.133 30.4617 139.651 30.9291C140.126 31.3617 140.505 31.8895 140.762 32.4783C141.031 33.1136 141.164 33.7982 141.152 34.4881C141.179 35.5324 140.879 36.559 140.294 37.4242C139.675 38.2835 138.82 38.9446 137.833 39.3275C136.602 39.8027 135.29 40.0301 133.971 39.9966C132.632 40.0251 131.301 39.7937 130.05 39.3152C128.997 38.9063 128.092 38.19 127.451 37.2595C126.832 36.3445 126.509 35.2034 126.481 33.8361H130.465C130.47 34.3642 130.637 34.878 130.942 35.3088C131.248 35.7395 131.678 36.0665 132.174 36.246C132.735 36.4588 133.33 36.5625 133.93 36.5513C134.48 36.5633 135.027 36.4737 135.544 36.287C135.953 36.1428 136.315 35.8918 136.594 35.5601C136.84 35.2512 136.974 34.8685 136.975 34.4739C136.979 34.1199 136.857 33.7761 136.631 33.5037C136.354 33.2016 136.01 32.9682 135.627 32.8224C135.086 32.6019 134.527 32.4283 133.956 32.3035L132 31.8308C130.44 31.4591 129.209 30.8724 128.307 30.0707C127.405 29.269 126.958 28.1829 126.964 26.8122C126.936 25.7605 127.252 24.7284 127.866 23.8738C128.508 23.0047 129.374 22.3253 130.37 21.9075C131.52 21.42 132.759 21.1796 134.007 21.2019C135.25 21.1741 136.483 21.4148 137.624 21.9075C138.593 22.3291 139.425 23.0126 140.027 23.8812C140.605 24.7513 140.909 25.7748 140.9 26.8196L136.946 26.8315ZM109.309 39.7543H105.219V25.8497L104.799 25.8449L100.668 39.7543H96.5804L92.5606 25.8449L92.0392 25.8497V39.7543H87.9491V21.4639H94.9001L98.4109 33.7221H98.8351L102.346 21.4639H109.309V39.7543ZM81.5098 39.7543H85.9392L79.7982 21.4662H74.1854L68.0343 39.7543H72.4711L73.6665 35.7439H80.3144L81.5098 39.7543ZM74.617 32.5535L76.6097 25.8497H77.3615L79.364 32.5535H74.617ZM142.158 23.3985C141.968 23.3979 141.783 23.3416 141.625 23.2364C141.466 23.1312 141.342 22.9819 141.268 22.807C141.218 22.688 141.193 22.5603 141.193 22.4312C141.193 22.3022 141.218 22.1744 141.268 22.0555C141.317 21.9406 141.387 21.836 141.474 21.7476C141.564 21.6599 141.668 21.5892 141.782 21.5389C142.024 21.4418 142.293 21.4418 142.534 21.5389C142.649 21.5886 142.753 21.6594 142.842 21.7476C142.93 21.8361 143.001 21.9406 143.05 22.0555C143.1 22.1744 143.126 22.3022 143.126 22.4312C143.126 22.5603 143.1 22.688 143.05 22.807C143.001 22.9218 142.93 23.0263 142.842 23.1149C142.754 23.2036 142.649 23.2745 142.534 23.3235C142.415 23.3733 142.287 23.3988 142.158 23.3985ZM142.158 23.1342C142.284 23.1358 142.407 23.1031 142.515 23.0399C142.618 22.9816 142.706 22.8983 142.769 22.7976C142.831 22.6898 142.864 22.5677 142.864 22.4435C142.864 22.3192 142.831 22.1971 142.769 22.0894C142.705 21.9887 142.616 21.9055 142.512 21.8471C142.404 21.7852 142.282 21.7526 142.158 21.7526C142.034 21.7526 141.912 21.7852 141.804 21.8471C141.705 21.9074 141.622 21.9905 141.562 22.0894C141.498 22.1965 141.465 22.3188 141.465 22.4433C141.465 22.5679 141.498 22.6902 141.562 22.7973C141.622 22.8962 141.705 22.9793 141.804 23.0396C141.912 23.1027 142.034 23.1354 142.158 23.1342ZM141.804 22.8554V21.966H142.236C142.294 21.9647 142.351 21.9771 142.403 22.0022C142.45 22.0246 142.49 22.0599 142.517 22.1039C142.546 22.1524 142.56 22.2078 142.558 22.2639C142.56 22.3204 142.545 22.3761 142.515 22.4238C142.488 22.4688 142.447 22.5038 142.398 22.5236C142.345 22.5478 142.287 22.5593 142.228 22.5572H141.938V22.3828H142.18C142.212 22.3844 142.243 22.374 142.267 22.3537C142.279 22.3418 142.288 22.3278 142.294 22.3123C142.3 22.2969 142.302 22.2804 142.301 22.2639C142.303 22.2473 142.3 22.2307 142.294 22.2152C142.288 22.1997 142.279 22.1857 142.267 22.1741C142.243 22.1537 142.212 22.1434 142.18 22.145H142.047V22.8554H141.804ZM142.384 22.448L142.583 22.8557H142.313L142.132 22.448H142.384ZM69.0527 0.249456H73.1864V18.5398H69.0527V0.249456ZM92.8175 9.39476C92.8175 11.4022 92.4368 13.0994 91.6755 14.4864C90.9682 15.8252 89.8921 16.9333 88.5746 17.6794C87.22 18.4021 85.7083 18.7801 84.173 18.7801C82.6376 18.7801 81.126 18.4021 79.7714 17.6794C78.4534 16.9305 77.3774 15.8199 76.6705 14.479C75.9091 13.0792 75.5284 11.382 75.5284 9.38735C75.5284 7.39288 75.9091 5.69177 76.6705 4.28401C77.3762 2.94913 78.4487 1.84377 79.7617 1.09816C81.1168 0.377104 82.6284 0 84.1634 0C85.6985 0 87.21 0.377104 88.5652 1.09816C89.8826 1.84427 90.9586 2.95235 91.6658 4.29114C92.4271 5.68768 92.8078 7.38889 92.8078 9.39476M88.6014 9.39476C88.6327 8.3186 88.4489 7.247 88.0606 6.24284C87.7533 5.45808 87.219 4.78281 86.5259 4.30339C85.8168 3.86751 85.0007 3.63674 84.1683 3.63674C83.3358 3.63674 82.5197 3.86751 81.8106 4.30339C81.1166 4.78314 80.5807 5.45815 80.2708 6.24284C79.5416 8.28086 79.5416 10.5087 80.2708 12.5467C80.5796 13.3319 81.1156 14.0072 81.8103 14.4861C82.5195 14.9221 83.3357 15.1529 84.1681 15.1529C85.0006 15.1529 85.8167 14.9221 86.5259 14.4861C87.2198 14.0076 87.7544 13.332 88.0606 12.5467C88.4485 11.5424 88.6324 10.4709 88.6014 9.39476ZM60.3655 12.1635L62.4894 18.5398H67.0254L64.6646 11.6715H61.4571L61.2655 11.0796C61.8765 10.961 62.9216 10.7766 63.8475 10.1463C64.4963 9.70498 65.0282 9.11288 65.3977 8.42079C65.7673 7.72869 65.9634 6.95726 65.9692 6.17271C65.9969 5.08899 65.7232 4.01886 65.1786 3.08151C64.6464 2.17382 63.8566 1.4447 62.9093 0.986691C61.7986 0.472279 60.5835 0.223205 59.36 0.259149H51.9819V18.5398H56.1186V12.1635H60.3655ZM60.2879 8.379C59.7249 8.58597 59.1274 8.68303 58.5278 8.66494H56.1177V3.6075H58.5204C59.1205 3.59025 59.718 3.69249 60.2783 3.90826C60.7212 4.08441 61.0954 4.399 61.3451 4.80515C61.5995 5.21471 61.7261 5.69085 61.7085 6.17271C61.7283 6.64725 61.6033 7.11658 61.3499 7.51832C61.0991 7.91319 60.7262 8.21539 60.2879 8.379ZM93.2075 0.249456V3.64399H100.311L100.505 4.23782C99.9039 4.35414 98.8881 4.53374 97.9764 5.13499V18.5446H102.067V3.63429H106.824V0.239478L93.2075 0.249456Z" fill="#EFECE6"/>
</g>
<defs>
<clipPath id="clip0_415_441">
<rect width="142.543" height="40" fill="white" transform="translate(0.582764)"/>
</clipPath>
</defs>
</svg>
