<svg width="53" height="48" viewBox="0 0 53 48" fill="none" xmlns="http://www.w3.org/2000/svg">
<g clip-path="url(#clip0_415_455)">
<path d="M52.0552 47.662C51.8137 47.9034 51.5481 48.0241 51.2101 48.0241C50.8721 48.0241 50.6065 47.9034 50.365 47.662C50.1236 47.4205 50.027 47.1549 50.027 46.8169C50.027 46.4789 50.1477 46.2133 50.365 45.9718C50.6065 45.7304 50.8721 45.6338 51.2101 45.6338C51.5481 45.6338 51.8137 45.7545 52.0552 45.9718C52.2966 46.2133 52.4173 46.4789 52.4173 46.8169C52.4173 47.1308 52.2966 47.4205 52.0552 47.662ZM50.4857 46.0925C50.2926 46.2857 50.196 46.5271 50.196 46.8169C50.196 47.1066 50.2926 47.3481 50.4857 47.5412C50.6789 47.7344 50.9203 47.8551 51.2101 47.8551C51.4998 47.8551 51.7413 47.7585 51.9344 47.5412C52.1276 47.3481 52.2242 47.1066 52.2242 46.8169C52.2242 46.5271 52.1276 46.2857 51.9344 46.0925C51.7413 45.8994 51.4998 45.8028 51.2101 45.8028C50.9445 45.7787 50.703 45.8752 50.4857 46.0925ZM51.2101 46.1408C51.3791 46.1408 51.4998 46.165 51.5723 46.1891C51.7171 46.2374 51.7654 46.3581 51.7654 46.5271C51.7654 46.6479 51.7171 46.7203 51.6447 46.7927C51.5964 46.8169 51.524 46.841 51.4515 46.8652C51.5481 46.8893 51.6205 46.9135 51.6688 46.9859C51.7171 47.0583 51.7413 47.1308 51.7413 47.1791V47.4688H51.524V47.2998C51.524 47.1549 51.4757 47.0583 51.4032 47.01C51.355 46.9859 51.2584 46.9618 51.1377 46.9618H50.9686V47.4688H50.7272V46.165H51.2101V46.1408ZM51.4515 46.3581C51.4032 46.334 51.3067 46.3098 51.1618 46.3098H50.9686V46.7686H51.1859C51.2825 46.7686 51.355 46.7686 51.4032 46.7445C51.4998 46.7203 51.5481 46.6479 51.5481 46.5513C51.5481 46.4547 51.4998 46.4064 51.4515 46.3581Z" fill="#EFECE6"/>
<path d="M43.3389 0H9.51189C4.41732 0 0.264404 4.03219 0.264404 8.95775V39.0181C0.264404 44.0161 4.27245 47.9517 9.41531 47.9517H43.2664C48.4093 47.9517 52.4173 44.0161 52.4173 39.0181V8.95775C52.4173 3.93561 48.4334 0 43.3389 0ZM51.3791 39.0181C51.3791 43.4608 47.8057 46.9135 43.2423 46.9135H9.41531C4.85193 46.9376 1.30263 43.4608 1.30263 39.0181V8.95775C1.30263 4.51509 4.90022 1.01408 9.51189 1.01408H43.363C47.8781 1.01408 51.4033 4.49095 51.4033 8.95775V39.0181H51.3791Z" fill="#EFECE6"/>
<path d="M42.035 29.481H37.7131L36.9646 24.7727L34.188 29.4327H29.8177L32.4737 32.2335L30.3006 36.9417L35.0813 34.0926L38.8238 36.99L38.1236 32.2335" fill="#EFECE6"/>
<path d="M45.0531 28.5392H38.5099L37.4717 22.0201L33.6568 28.4909H32.9324C32.4978 27.7424 32.3288 26.6559 32.3288 25.9798C32.3288 24.8692 32.4012 23.7826 32.4012 22.3581C32.4012 20.4748 31.8459 19.4848 30.3731 19.1227V19.0744C33.4877 18.6398 34.9123 16.5633 34.9123 13.6659C34.9123 9.53716 32.1598 8.6438 28.5622 8.6438H18.8801L14.7755 28.0563H19.9183L21.4153 20.9818H24.8439C26.6789 20.9818 27.4274 21.8752 27.4274 23.5895C27.4274 24.8933 27.2825 25.9315 27.2825 26.9215C27.2825 27.2836 27.3549 28.1529 27.6205 28.4909L31.3389 32.4265L28.1276 39.3078L34.9847 35.2273L40.1034 39.1629L39.1618 32.6679L45.0531 28.5392ZM26.3892 17.3601H22.2845L23.2745 12.676H27.0894C28.4415 12.676 29.866 13.0382 29.866 14.68C29.866 16.7806 28.2483 17.3601 26.3892 17.3601ZM35.0813 34.0925L30.3006 36.9416L32.4978 32.2575L29.8419 29.4567H34.2121L36.9646 24.7967L37.7131 29.505H42.0592L38.1477 32.2333L38.8479 37.014L35.0813 34.0925Z" fill="#EFECE6"/>
</g>
<defs>
<clipPath id="clip0_415_455">
<rect width="52.1529" height="48" fill="white" transform="translate(0.264404)"/>
</clipPath>
</defs>
</svg>
