<svg width="139" height="40" viewBox="0 0 139 40" fill="none" xmlns="http://www.w3.org/2000/svg">
<g clip-path="url(#clip0_89_192)">
<path d="M34.3886 10.5962C32.4813 10.1902 30.7928 9.19395 29.5232 7.80826C28.2033 6.36698 27.3368 4.50439 27.1493 2.44521V1.59985H20.5349V27.851C20.5241 30.9114 18.0392 33.3894 14.9749 33.3894C13.1691 33.3894 11.5649 32.5291 10.5489 31.1964C9.81144 30.2299 9.41348 29.0477 9.41526 27.8321C9.41526 24.7634 11.9044 22.2752 14.9753 22.2752C15.5476 22.2751 16.1165 22.3626 16.6619 22.5356V15.8163C16.0245 15.7289 15.3812 15.6919 14.7382 15.7055C8.14352 15.8416 2.83936 21.2275 2.83936 27.8512C2.83936 31.1576 4.16011 34.1551 6.30371 36.3453C8.51084 38.6006 11.5891 40 14.9942 40C21.7073 40 27.1496 34.5612 27.1496 27.8513V14.4393C29.7323 16.2844 32.8961 17.3701 36.3133 17.3701V10.7976C35.6666 10.7978 35.0214 10.7302 34.3886 10.5962Z" fill="#EFECE6"/>
<path d="M43.4806 11.7473V16.1199H48.6026V32.7819H53.7267V16.2379H57.8961L59.3257 11.7473H43.4806Z" fill="#EFECE6"/>
<path d="M85.4167 11.7473V16.1199H90.5387V32.7819H95.6627V16.2379H99.832L101.261 11.7473H85.4167Z" fill="#EFECE6"/>
<path d="M60.2796 14.2286C60.2796 12.8584 61.3979 11.7472 62.7795 11.7472C64.1623 11.7472 65.2818 12.8584 65.2818 14.2286C65.2818 15.5989 64.163 16.7102 62.7795 16.7102C61.3979 16.7095 60.2796 15.5989 60.2796 14.2286Z" fill="#EFECE6"/>
<path d="M60.2796 18.4833H65.2818V32.7819H60.2796V18.4833Z" fill="#EFECE6"/>
<path d="M67.4266 11.7472V32.7818H72.4307V27.3464L73.9796 25.927L78.8636 32.8998H84.2243L77.1947 22.7371L83.5091 16.5914H77.4334L72.4307 21.5544V11.7472H67.4266Z" fill="#EFECE6"/>
<path d="M121.394 11.7472V32.7818H126.399V27.3464L127.947 25.927L132.833 32.8998H138.194L131.165 22.7371L137.479 16.5914H131.403L126.399 21.5544V11.7472H121.394Z" fill="#EFECE6"/>
<path fill-rule="evenodd" clip-rule="evenodd" d="M118.417 24.2732C118.417 29.0373 114.522 32.8998 109.719 32.8998H109.601C104.797 32.8998 100.903 29.0373 100.903 24.2732C100.903 19.5091 104.797 15.6461 109.601 15.6461H109.719C114.522 15.6461 118.417 19.5092 118.417 24.2732ZM109.661 20.0787C107.325 20.0787 105.431 21.9558 105.431 24.2732C105.431 26.5906 107.325 28.4684 109.661 28.4688C111.995 28.4688 113.89 26.5906 113.89 24.2732C113.89 21.9558 111.995 20.0787 109.661 20.0787Z" fill="#EFECE6"/>
</g>
<defs>
<clipPath id="clip0_89_192">
<rect width="137.278" height="40" fill="white" transform="translate(0.915527)"/>
</clipPath>
</defs>
</svg>
