<svg width="74" height="24" viewBox="0 0 74 24" fill="none" xmlns="http://www.w3.org/2000/svg">
<g clip-path="url(#clip0_89_178)">
<path fill-rule="evenodd" clip-rule="evenodd" d="M12.1576 7.48919H8.45252C7.15247 7.48919 6.49874 7.84077 6.49874 7.84077V0H0.7229V24H6.49874V14.3159C6.49874 13.4593 7.19307 12.7656 8.0473 12.7656H11.4097C12.2652 12.7656 12.9571 13.4593 12.9571 14.3159V24H18.7354V13.5659C18.7354 9.17753 15.8151 7.48919 12.1576 7.48919ZM67.6945 7.48919V17.172C67.6945 18.03 67.0027 18.7236 66.1473 18.7236H62.7861C61.9306 18.7236 61.2388 18.03 61.2388 17.172V7.48919H55.4593V17.6556C55.4593 21.8112 58.1141 24 62.0381 24H67.6958V23.9699C71.3101 23.9699 73.4729 21.3947 73.4729 17.6556V7.48919H67.6945ZM35.1025 17.172C35.1025 18.03 34.4095 18.7236 33.554 18.7236H30.1916C29.3361 18.7236 28.6443 18.03 28.6443 17.172V7.48919H22.8659V17.6556C22.8659 21.8112 25.521 24 29.4448 24H35.1025V23.9699C38.717 23.9699 40.8808 21.3947 40.8808 17.6556V7.48919H35.1025V17.172ZM45.2839 24H51.0634V0H45.2839V24Z" fill="#EFECE6"/>
</g>
<defs>
<clipPath id="clip0_89_178">
<rect width="72.75" height="24" fill="white" transform="translate(0.7229)"/>
</clipPath>
</defs>
</svg>
