<svg width="97" height="48" viewBox="0 0 97 48" fill="none" xmlns="http://www.w3.org/2000/svg">
<g clip-path="url(#clip0_89_176)">
<path fill-rule="evenodd" clip-rule="evenodd" d="M82.575 45.3041C82.6728 45.3416 82.7384 45.3888 82.7847 45.436C82.8871 45.5364 83.0006 45.7011 83.154 45.9291L83.4477 46.4093H82.9638L82.7479 46.0181C82.575 45.7172 82.4353 45.5246 82.3381 45.4489C82.2572 45.3883 82.1647 45.3663 82.0224 45.3706H81.7917V46.4093H81.3998V43.9333H82.2488C82.5199 43.9333 82.7284 43.9521 82.8593 43.9961C82.9906 44.0427 83.0946 44.128 83.1634 44.2316C83.2381 44.3469 83.2748 44.4741 83.2748 44.5996C83.2748 44.7777 83.2197 44.9392 83.0946 45.0744C82.9638 45.2064 82.7847 45.2842 82.575 45.3041ZM81.7917 45.0117H82.2635C82.5004 45.0117 82.6538 44.9709 82.7389 44.9162C82.8209 44.8427 82.8593 44.7622 82.8593 44.6393C82.8593 44.568 82.8445 44.5009 82.803 44.4371C82.7763 44.385 82.7106 44.3469 82.6302 44.3094C82.5661 44.2799 82.4348 44.2665 82.2488 44.2665H81.7917V45.0117Z" fill="#EFECE6"/>
<path fill-rule="evenodd" clip-rule="evenodd" d="M82.3943 42.8238C82.7763 42.8238 83.154 42.9236 83.5118 43.114C83.869 43.3222 84.1517 43.6001 84.3471 43.9746C84.5504 44.3475 84.6492 44.7386 84.6492 45.1367C84.6492 45.5369 84.5509 45.9162 84.3471 46.2853C84.1648 46.6544 83.8716 46.9426 83.5112 47.1395C83.1629 47.3476 82.7841 47.4453 82.3938 47.4453C81.9924 47.4453 81.6283 47.3482 81.2653 47.1395C80.9007 46.9426 80.6275 46.6544 80.4195 46.2853C80.2151 45.9162 80.1274 45.5369 80.1274 45.1367C80.1274 44.7386 80.2151 44.3475 80.4195 43.9746C80.6386 43.6001 80.9144 43.3227 81.2837 43.114C81.6404 42.9236 82.0013 42.8238 82.3943 42.8238ZM83.3211 46.8057C83.6189 46.6341 83.8569 46.3948 84.0361 46.089C84.1979 45.7966 84.2725 45.4779 84.273 45.1367C84.273 44.8067 84.1989 44.4784 84.0366 44.1715C83.8401 43.8614 83.6105 43.6259 83.3216 43.459C83.0179 43.2889 82.7111 43.2085 82.3948 43.2085C82.0759 43.2085 81.766 43.2895 81.4655 43.459C81.1671 43.6253 80.9233 43.8614 80.7594 44.1715C80.5965 44.4784 80.5135 44.8067 80.5135 45.1367C80.5135 45.4779 80.5876 45.7966 80.7499 46.089C80.9228 46.3948 81.1587 46.6341 81.4592 46.8057C81.7481 46.9817 82.067 47.0676 82.3943 47.0676C82.719 47.0676 83.029 46.9817 83.3211 46.8057Z" fill="#EFECE6"/>
<path d="M36.7999 18.1299C36.7999 16.5681 36.2873 15.3221 34.7711 15.3221C33.2644 15.3221 32.7335 16.7317 32.7335 18.1299H36.7999Z" fill="#EFECE6"/>
<path fill-rule="evenodd" clip-rule="evenodd" d="M10.4565 43.6001L1.37036 0.645264H96.1704L86.851 43.0904L86.666 43.9413L85.9479 43.4655C85.909 43.437 82.1647 40.9696 75.7837 39.733C69.8917 38.5983 60.472 38.3059 49.0659 43.3785L48.8063 43.503L48.5547 43.3603C48.551 43.3592 48.5271 43.3474 48.4838 43.326C47.8689 43.0221 43.3355 40.7821 36.8449 39.6203C30.4607 38.47 20.8114 38.1669 11.1473 43.2428L10.4565 43.6001ZM67.0291 13.5446V10.3003H70.489V13.7419H70.4885L68.643 15.9722H67.8813L68.7171 13.5446H67.0291ZM26.6829 19.7958C26.6829 15.0896 29.6922 12.2757 34.7299 12.2757C40.1033 12.2757 42.7746 15.7162 42.7746 19.7958C42.7746 20.1183 42.7516 20.4269 42.708 20.6597H32.5385C32.5385 22.663 33.6581 23.8899 35.4349 23.8899C36.9542 23.8899 38.1163 23.4596 38.3632 22.2122H42.7999C42.2619 25.4372 39.9949 27.3235 35.0318 27.3235C29.5743 27.3235 26.6829 24.5037 26.6829 19.7958ZM70.8583 17.1877C70.8583 14.1183 73.7226 12.3197 78.1971 12.3197C82.1788 12.3197 84.5946 14.2958 84.5946 16.6538H80.5094C80.5094 15.9735 79.6575 15.2935 78.2069 15.2935C76.7307 15.2935 76.1571 15.8152 76.1571 16.275C76.1571 17.1305 77.4577 17.338 79.0642 17.5943C81.6592 18.0084 85.0526 18.5498 85.0526 22.155C85.0516 24.9663 82.9439 27.1519 77.4344 27.1519C72.5517 27.1519 70.7379 25.004 70.7379 22.403V22.321H75.1999C75.1999 23.5528 76.1715 24.1753 77.5385 24.1753C78.7452 24.1753 79.3647 23.7753 79.3647 23.0086C79.3647 22.2519 78.1816 22.0477 76.6977 21.7918C74.203 21.3613 70.8583 20.7843 70.8583 17.1877ZM60.2407 26.8322V12.5996H65.569V26.8322H60.2407ZM48.2927 26.8627L41.3013 12.6272H47.4358L51.1872 20.8467H51.2847L55.0394 12.6272H59.441L52.6732 26.8627H48.2927ZM13.0488 26.8388V12.7505H18.3747V23.2416H26.4265V26.8388H13.0488Z" fill="#EFECE6"/>
</g>
<defs>
<clipPath id="clip0_89_176">
<rect width="96" height="48" fill="white" transform="translate(0.7229)"/>
</clipPath>
</defs>
</svg>
