<svg width="116" height="48" viewBox="0 0 116 48" fill="none" xmlns="http://www.w3.org/2000/svg">
<g clip-path="url(#clip0_415_443)">
<path d="M67.2278 1.33878L66.3465 2.66414C72.2526 5.09284 74.6437 9.50616 74.6437 14.2303C74.6437 16.5941 74.0015 18.729 72.7582 18.729H57.2671C55.1561 18.729 54.5276 17.981 55.4772 16.1022C57.1681 12.7581 62.2475 6.36355 65.373 2.51726C65.8342 1.95364 66.2065 1.07234 64.5635 0.631692C62.8828 0.184212 60.1672 -0.00366211 57.8649 -0.00366211C46.2167 -0.00366211 38.0972 6.29523 38.0972 14.4148C38.0972 21.8887 45.1373 28.864 57.8376 28.864C63.4499 28.864 70.3261 27.2858 74.2304 22.8657H70.8692C67.0673 26.2986 62.104 27.0809 57.8649 27.0809C47.6173 27.0809 41.1305 21.7623 41.1305 14.4114C41.1305 7.63425 48.4746 1.54715 57.7385 1.54715C58.8453 1.54715 59.2074 1.78284 58.0357 3.23801C55.6651 6.17909 51.4362 12.0066 49.4448 15.4191C47.3167 19.074 49.4892 22.0493 54.2748 22.0493H73.6497C74.8487 22.0493 75.525 21.3695 76.2253 20.133C76.7821 19.1424 77.6565 17.1338 77.6565 14.4114C77.6565 8.90155 73.5267 3.84262 67.221 1.33195L67.2278 1.33878Z" fill="#EFECE6"/>
<path d="M110.685 39.2927H97.5438C97.9742 37.6155 99.2791 36.4575 101.725 36.4575H114.299V33.6325H100.936C93.315 33.6325 91.5011 39.0501 91.5011 42.1108H107.774C110.008 42.1108 110.008 45.1202 107.85 45.1202C105.691 45.1202 89.8615 45.127 89.8615 45.127V33.6325H84.4405V45.127H75.4567C73.0451 45.127 72.0374 43.9724 72.0374 42.1825C72.0374 40.0305 72.0306 33.6325 72.0306 33.6325H63.3474L55.5865 38.5173L48.9016 33.6325H29.66C24.0886 33.6325 20.1296 36.8879 19.6685 40.9596H23.2859C21.8239 41.899 20.7138 43.4464 20.0886 45.1509H8.71375C6.56516 45.1509 5.56431 44.0373 5.56431 41.9366V33.6325H0.126221V40.6966C0.126221 45.1816 2.57541 47.9998 8.08865 47.9998H46.0323L53.8239 43.0911L60.5464 47.9998H68.56L58.1313 40.3789L66.6027 35.0467V43.1185C66.6027 45.6223 69.8444 47.9998 72.7923 47.9998H110.709C117.301 47.9998 117.257 39.2927 110.681 39.2927H110.685ZM45.0588 45.1543H26.6437C26.8316 43.6172 27.6309 42.0869 30.145 42.0869H41.5575V39.2756H26.3636C26.6266 38.1142 27.812 36.4643 30.5515 36.4643H42.6198V34.9033L51.2859 41.2329L45.0553 45.1543H45.0588Z" fill="#EFECE6"/>
</g>
<defs>
<clipPath id="clip0_415_443">
<rect width="115.512" height="48" fill="white" transform="translate(0.126221)"/>
</clipPath>
</defs>
</svg>
