<svg width="45" height="64" viewBox="0 0 45 64" fill="none" xmlns="http://www.w3.org/2000/svg">
<g clip-path="url(#clip0_415_445)">
<path d="M11.1809 0.223903C16.9134 4.05001 19.9987 13.3156 18.9253 23.6053C21.5858 22.1993 24.2232 22.2487 27.0516 23.6185C25.4152 14.3858 28.0526 6.65782 34.6413 0C36.7453 2.16659 37.6244 4.70196 38.1578 7.35587C39.5111 14.0927 37.8747 20.2237 34.1144 25.8377C33.4164 26.8782 33.3209 27.5861 34.1605 28.541C36.2678 30.9348 35.4052 33.7995 35.2833 36.5324C35.2504 37.2831 35.0825 38.024 35.0002 38.7714C34.7927 40.6417 33.8675 41.8764 31.9676 42.3078C30.9534 42.5383 29.9261 42.7687 28.9581 43.1342C28.3391 43.368 27.4599 43.7302 27.3019 44.2274C26.7684 45.9166 25.5337 45.775 24.2462 45.7387C23.2617 45.7124 22.2739 45.6992 21.2927 45.7486C20.1172 45.8079 19.2282 45.6696 18.7145 44.3196C18.4939 43.7401 17.4732 43.1737 16.7719 43.1145C12.3333 42.7325 10.7462 40.1906 10.5092 35.9759C10.3445 33.0586 10.1404 30.3487 12.1358 27.9121C12.4025 27.5861 12.1983 26.6049 11.8987 26.1242C9.43904 22.1861 7.68075 18.0077 7.3877 13.3222C7.12429 9.12733 7.87173 5.13659 10.0647 1.49159C10.2425 1.19525 10.4598 0.921953 10.687 0.658538C10.8319 0.490611 11.0228 0.362196 11.1809 0.227196V0.223903ZM31.7338 24.8499C35.876 21.1852 38.8032 10.8889 34.9014 5.24196C30.127 9.84514 28.5267 19.7561 31.7338 24.8499ZM10.9932 5.12342C7.06173 11.6956 10.4565 21.6791 14.2233 24.8499C17.3909 19.5289 15.9256 10.3358 10.9932 5.12342ZM28.3127 33.2166C26.1527 33.2529 24.2397 35.0145 24.2792 36.9308C24.322 38.9393 26.3338 40.6581 28.5498 40.5758C30.6011 40.5001 32.5241 38.7549 32.5339 36.9571C32.5471 34.9914 30.4991 33.1771 28.3127 33.2134V33.2166ZM17.4995 40.589C19.7649 40.5923 21.5397 39.0019 21.5627 36.9506C21.5858 34.9025 19.7912 33.2134 17.5917 33.2101C15.4284 33.2101 13.5055 34.9091 13.466 36.8649C13.4265 38.7945 15.3659 40.5857 17.5028 40.589H17.4995ZM23.1432 39.3312C21.1281 41.5471 20.5486 42.9136 21.3026 43.1869C22.2739 43.5392 24.0026 43.7664 24.4471 43.2396C25.8662 41.557 23.5482 40.8293 23.1432 39.3312Z" fill="#EFECE6"/>
<path d="M27.18 55.3863C30.3114 56.9932 33.1365 57.948 36.3008 56.924C36.798 56.7627 37.2886 56.5816 37.7924 56.4499C38.958 56.1469 40.2224 55.9296 40.8381 57.2566C41.4044 58.488 40.7031 59.4824 39.712 60.2529C39.4881 60.4274 39.228 60.5558 39.4552 60.8654C39.2806 61.7248 39.3498 62.7685 38.8724 63.4007C38.092 64.4313 37.0087 63.9407 36.0999 63.3052C35.7706 63.0747 35.3887 62.8574 35.1615 62.538C32.5866 58.8996 28.4313 58.2938 24.6183 57.0722C23.9005 56.8417 22.995 56.9866 22.2245 57.1644C19.5772 57.7801 16.8772 58.2938 14.3451 59.2388C13.0544 59.7195 12.0831 61.0432 10.9537 61.9717C10.147 62.6335 9.39953 63.6608 8.49075 63.8419C6.2188 64.293 5.29685 62.9858 6.01794 61.0827C5.35611 60.1541 4.4177 59.4067 4.2827 58.5374C3.97319 56.5355 5.88953 55.3633 7.9738 56.384C11.5069 58.1127 14.8456 56.9569 18.7936 56.1239C17.5489 55.4291 16.7653 54.8661 15.8927 54.5269C13.2553 53.5029 10.6112 52.4624 7.90465 51.6425C6.85429 51.3231 5.62941 51.5668 4.48355 51.5767C3.85136 51.5833 3.20928 51.7183 2.58697 51.6491C1.41477 51.5141 0.509282 50.7963 0.657453 49.6274C0.73977 48.9755 1.63538 48.4289 2.1655 47.8362C2.31367 47.9152 2.46514 47.9909 2.61331 48.07C2.53428 47.2797 2.42562 46.4928 2.37953 45.6992C2.31038 44.5106 2.61989 43.5063 3.88758 43.0815C5.18819 42.6436 6.3538 43.0025 6.74234 44.2834C7.95734 48.307 11.3093 49.6735 14.7073 51.0861C16.9497 52.0179 19.1031 53.1868 21.3783 54.0199C22.3134 54.3623 23.6042 54.4446 24.4998 54.0758C27.8682 52.6896 31.1675 51.1256 34.4371 49.5188C36.1197 48.6923 37.4993 47.5168 38.0525 45.5346C38.25 44.8333 38.8921 44.0233 39.5375 43.7467C40.3639 43.3911 41.4802 43.2758 42.3066 43.5458C42.7281 43.6841 42.9125 44.8859 42.9948 45.6301C43.0771 46.3578 42.8993 47.1151 42.8269 48.0008C44.3777 48.0897 44.73 49.1434 44.3909 50.4703C44.0221 51.9092 42.8367 51.6129 41.7139 51.6755C39.3696 51.8006 36.9692 51.8796 34.717 52.469C32.2376 53.1144 29.9031 54.3096 27.1767 55.3962L27.18 55.3863Z" fill="#EFECE6"/>
<path d="M23.3572 50.872V46.5356H26.1363C26.9726 49.6834 26.6565 50.2069 23.3572 50.872Z" fill="#EFECE6"/>
<path d="M22.5077 50.7008C19.5212 50.4736 19.1623 49.9402 19.7122 46.529H22.5077V50.7008Z" fill="#EFECE6"/>
</g>
<defs>
<clipPath id="clip0_415_445">
<rect width="43.875" height="64" fill="white" transform="translate(0.637756)"/>
</clipPath>
</defs>
</svg>
